<svg xmlns="http://www.w3.org/2000/svg" width="199" height="62" fill="none" viewBox="0 0 199 62">
    <path fill="#4A3BCF" d="M51.449 36.402h.558V26.126c0-.089-.041-.173-.113-.226l-1.99-1.517c-.075.178-.179.338-.308.475l1.853 1.41v10.134zM52.005 40.695h-.558V58.22h.558V40.695zM30.216 30.048h1.194c.036 0 .07.004.107.005V26.28c0-.25-.132-.483-.345-.61l-12.52-7.453v.168c0 .463-.204.88-.525 1.162l11.994 7.14v3.366c.03-.004.063-.006.095-.006zM17.137 58.213c.033 0 .067.004.1.005V19.92c-.033.003-.067.005-.1.005h-1.194c-.035 0-.067-.002-.101-.005v38.3c.034-.002.065-.005.101-.005h1.194v-.002zM12.582 20.435c-.07.053-.111.137-.111.227v15.742h.557V20.803l1.802-1.37c-.126-.14-.23-.302-.3-.48l-1.948 1.482zM13.028 40.695h-.557v17.518h.557V40.695zM45.876 24.298l-15.55 15.387c-.134.135-.211.316-.211.508V58.22c.036-.002.071-.006.107-.006h1.194c.032 0 .063.004.095.005V40.49L46.89 25.27c-.474-.137-.854-.504-1.015-.973zM47.31 25.333c-.023 0-.045-.004-.066-.004v32.889c.033-.001.067-.005.1-.005h1.194c.034 0 .068.004.102.005V25.326c-.044.003-.09.007-.136.007H47.31z"/>
    <path fill="#4A3BCF" d="M34.775 47.777h-.558v10.436h.558V47.777zM62.534 20.992c-1.667-4.04-4.052-7.677-7.085-10.808-3.043-3.14-6.58-5.61-10.513-7.336-3.44-1.51-7.052-2.392-10.77-2.634.01.064.015.127.015.194V1.619l-.002.04c3.519.24 6.94 1.079 10.196 2.509 3.765 1.654 7.152 4.017 10.065 7.025 2.908 3 5.191 6.485 6.79 10.355 1.65 4.002 2.489 8.232 2.489 12.573 0 5.115-1.15 10.004-3.416 14.53-1.87 3.738-4.487 7.111-7.63 9.853.49.14.86.563.928 1.086 3.28-2.865 6.011-6.386 7.964-10.288 2.369-4.73 3.568-9.838 3.568-15.182 0-4.534-.874-8.95-2.599-13.128z"/>
    <path fill="#4A3BCF" d="M58.191 29.257c-3.21-13.3-15.014-22.79-28.668-22.79-7.885 0-15.3 3.116-20.875 8.776C3.072 20.9.002 28.424.002 36.426c0 4.776 1.134 9.527 3.28 13.74 1.853 3.636 4.46 6.888 7.59 9.482.043-.529.396-.969.875-1.132-2.972-2.467-5.447-5.558-7.205-9.01C2.47 45.44 1.42 41.04 1.42 36.427c0-7.618 2.923-14.781 8.23-20.168 5.31-5.387 12.368-8.353 19.874-8.353 12.9 0 24.065 8.896 27.221 21.404.117-.034.239-.053.361-.053h1.085v.001z"/>
    <path fill="#191F2C" d="M35.468 46.237v-1.212c0-.225-.18-.408-.402-.408h-1.194c-.222 0-.402.183-.402.408v1.212c0 .225.18.408.402.408h1.194c.222 0 .402-.183.402-.408zM48.902 24.422V23.21c0-.224-.181-.408-.402-.408h-1.194c-.222 0-.402.184-.402.408v1.212c0 .225.18.408.402.408H48.5c.222-.001.402-.183.402-.408zM30.216 33.209h1.194c.222 0 .402-.184.402-.408v-1.212c0-.225-.18-.408-.402-.408h-1.194c-.222 0-.403.183-.403.408v1.212c0 .224.181.408.403.408zM17.136 17.395h-1.193c-.222 0-.402.182-.402.408v1.211c0 .224.18.408.402.408h1.193c.223 0 .401-.184.401-.408v-1.211c0-.226-.178-.409-.4-.409zM13.347 37.536h-1.193c-.223 0-.402.181-.402.407v1.211c0 .225.18.408.402.408h1.193c.223 0 .402-.183.402-.408v-1.211c0-.226-.18-.407-.402-.407zM17.136 59.347h-1.193c-.222 0-.402.183-.402.408v1.212c0 .224.18.407.402.407h1.193c.223 0 .401-.183.401-.407v-1.212c0-.225-.178-.408-.4-.408zM31.418 59.347h-1.194c-.222 0-.402.183-.402.408v1.212c0 .224.18.407.402.407h1.194c.222 0 .402-.183.402-.407v-1.212c-.001-.225-.181-.408-.402-.408zM35.094 59.347H33.9c-.222 0-.402.183-.402.408v1.212c0 .224.18.407.402.407h1.194c.22 0 .402-.183.402-.407v-1.212c0-.225-.181-.408-.402-.408zM48.539 59.347h-1.194c-.222 0-.402.183-.402.408v1.212c0 .224.18.407.402.407h1.194c.222 0 .402-.183.402-.407v-1.212c0-.225-.18-.408-.402-.408zM33.217.164C33.142.066 33.027 0 32.894 0h-1.193c-.221 0-.403.182-.403.408v1.211c0 .227.182.41.403.41h1.193c.222 0 .402-.183.402-.41V.408c.002-.092-.03-.176-.08-.244zM11.752 59.756v1.212c0 .224.18.407.402.407h1.193c.223 0 .402-.183.402-.407v-1.211c0-.226-.18-.408-.402-.408h-1.195c-.22-.002-.4.181-.4.407zM52.327 59.352h-1.194c-.222 0-.401.183-.401.408v1.212c0 .225.179.408.401.408h1.194c.223 0 .402-.183.402-.408V59.76c-.001-.225-.18-.408-.402-.408zM52.725 39.154v-1.211c0-.226-.178-.407-.402-.407H51.13c-.222 0-.4.181-.4.407v1.211c0 .225.178.408.4.408h1.194c.224 0 .402-.183.402-.408zM58.3 32.184c.223 0 .403-.182.403-.408v-1.212c0-.19-.129-.347-.302-.392-.032-.008-.066-.015-.1-.015h-1.194c-.054 0-.105.01-.153.031-.145.06-.25.207-.25.376v1.212c0 .226.18.408.403.408H58.3zM102.582 23.035v15.312h-2.549V28.242l-5.79 8.369-5.7-8.31v10.044h-2.568V23.033h1.765l6.526 9.453 6.571-9.453h1.745v.002zM120.125 35.939h-7.398l-.961 2.408h-2.815l6.661-15.312h1.631l6.684 15.312h-2.84l-.962-2.408zm-.802-2.063l-2.886-7.245-2.882 7.245h5.768zM142.37 27.446c0 2.47-2.122 4.348-4.827 4.348h-4.783v6.551h-2.571V23.033h7.354c2.705.002 4.827 1.984 4.827 4.413zm-2.526.02c0-1.368-1.161-2.266-2.636-2.266h-4.448v4.513h4.448c1.476 0 2.636-.839 2.636-2.247zM161.188 27.446c0 2.47-2.124 4.348-4.829 4.348h-4.783v6.551h-2.57V23.033h7.353c2.705.002 4.829 1.984 4.829 4.413zm-2.526.02c0-1.368-1.163-2.266-2.637-2.266h-4.449v4.513h4.449c1.474 0 2.637-.839 2.637-2.247zM170.529 25.2v4.41h6.17v2.162h-6.17v4.411h7.109v2.162h-9.68V23.033h9.68V25.2h-7.109v.001zM184.591 23.035h4.962c4.961 0 8.447 3.43 8.447 7.655 0 4.227-3.487 7.656-8.447 7.656h-4.962v-15.31zm4.894 13.109c3.465 0 5.879-2.33 5.879-5.452 0-3.123-2.414-5.45-5.879-5.45h-2.324v10.902h2.324z"/>
</svg>
