<svg version="1.1" id="Layer_1" xmlns="http://www.w3.org/2000/svg" xmlns:xlink="http://www.w3.org/1999/xlink" x="0px" y="0px"
	 width="100%" viewBox="0 0 512 512" enable-background="new 0 0 512 512" xml:space="preserve">
<path fill="#000000" opacity="1.000000" stroke="none" 
	d="
M1.000000,191.000000 
	C1.000000,127.333336 1.000000,64.166664 1.000000,1.000000 
	C171.666672,1.000000 342.333344,1.000000 513.000000,1.000000 
	C513.000000,171.666672 513.000000,342.333344 513.000000,513.000000 
	C342.333344,513.000000 171.666672,513.000000 1.000000,513.000000 
	C1.000000,405.833344 1.000000,298.666656 1.000000,191.000000 
M502.016846,259.500336 
	C502.682343,255.855240 503.703186,252.233917 503.948883,248.560745 
	C504.798706,235.855957 501.846436,223.804535 496.989594,212.167313 
	C490.052643,195.545990 480.660004,180.473206 468.033539,167.570618 
	C457.173676,156.473251 444.634033,147.707565 430.958405,140.260895 
	C417.761414,133.074844 403.994202,127.755562 389.552979,123.894852 
	C388.407990,123.588745 387.242157,122.250771 386.681793,121.101768 
	C385.564362,118.810486 384.880676,116.309914 383.983704,113.908524 
	C376.121185,92.858475 367.072449,72.276085 355.330688,53.155384 
	C348.533478,42.086517 340.864075,31.185038 330.383240,23.017059 
	C325.205658,18.982037 319.742859,14.514071 313.671783,12.671965 
	C308.624359,11.140448 302.143311,12.095974 296.927216,13.837026 
	C286.931244,17.173527 281.270691,25.583759 277.067352,34.781094 
	C273.940552,41.622875 271.347748,48.708714 268.960327,54.593437 
	C257.811249,50.991299 247.218674,46.591278 236.188446,44.278461 
	C225.020081,41.936676 213.348160,41.174904 202.154816,45.052876 
	C191.513748,48.739502 184.715790,56.893032 181.229324,67.013046 
	C177.499847,77.838448 179.478638,89.224899 181.711578,100.207512 
	C184.864334,115.714203 190.917984,130.142624 199.189880,143.655441 
	C208.107559,158.223160 219.266449,170.668320 233.538818,180.147568 
	C241.838928,185.660233 250.306747,190.920410 258.069153,195.890823 
	C255.597214,206.669846 253.206436,217.095016 250.479355,228.986664 
	C238.625595,228.986664 225.702316,228.356430 212.875183,229.195587 
	C203.423706,229.813889 194.002823,231.954025 184.747131,234.164795 
	C177.800049,235.824142 170.926117,238.198776 164.396057,241.101715 
	C153.834366,245.796890 143.200684,250.546127 133.288986,256.436310 
	C118.756432,265.072479 105.523598,275.612701 95.308060,289.295746 
	C87.876259,299.250183 80.406494,309.285736 74.161896,319.989960 
	C65.951553,334.063812 60.943211,349.559998 58.099709,365.627014 
	C57.475597,369.153534 56.290661,368.728149 53.633408,368.076172 
	C45.574581,366.098816 37.343731,365.854431 29.636766,369.181519 
	C12.485362,376.585754 8.437347,394.542999 12.794099,410.047333 
	C15.268908,418.854431 19.636719,427.236450 23.919201,435.407806 
	C34.858871,456.281616 51.970974,470.857819 72.370102,482.120667 
	C87.966553,490.731842 104.493782,496.727783 121.710770,500.849915 
	C130.814316,503.029510 140.069153,505.041656 149.366119,505.834625 
	C161.723526,506.888702 174.187363,506.843933 186.608124,506.945557 
	C193.023514,506.998016 199.443741,506.109863 205.863434,506.086060 
	C211.280701,506.065979 216.699097,506.942993 222.119095,506.967773 
	C245.451828,507.074432 268.785553,507.069427 292.118347,506.968018 
	C297.038239,506.946655 301.957367,506.057770 306.873749,506.087067 
	C313.278900,506.125183 319.683411,506.994202 326.083832,506.944489 
	C337.500916,506.855835 348.913025,506.253448 360.330444,506.044037 
	C368.828918,505.888184 377.363373,506.478027 385.827271,505.915253 
	C402.586334,504.800873 411.743073,492.793274 412.876251,477.269562 
	C413.673126,466.353485 407.094849,458.134186 400.660065,450.118042 
	C395.905640,444.195160 391.278137,438.170410 386.526276,432.104523 
	C404.654083,416.797974 419.438599,399.621033 429.051849,378.311493 
	C438.666626,356.998596 443.687073,334.763153 443.062897,311.290100 
	C471.198090,303.935944 493.588196,290.182343 502.016846,259.500336 
z"/>
<path fill="#F7F7F8" opacity="1.000000" stroke="none" 
	d="
M502.014160,259.925232 
	C493.588196,290.182343 471.198090,303.935944 443.062897,311.290100 
	C443.687073,334.763153 438.666626,356.998596 429.051849,378.311493 
	C419.438599,399.621033 404.654083,416.797974 386.526276,432.104523 
	C391.278137,438.170410 395.905640,444.195160 400.660065,450.118042 
	C407.094849,458.134186 413.673126,466.353485 412.876251,477.269562 
	C411.743073,492.793274 402.586334,504.800873 385.827271,505.915253 
	C377.363373,506.478027 368.828918,505.888184 360.330444,506.044037 
	C348.913025,506.253448 337.500916,506.855835 326.083832,506.944489 
	C319.683411,506.994202 313.278900,506.125183 306.873749,506.087067 
	C301.957367,506.057770 297.038239,506.946655 292.118347,506.968018 
	C268.785553,507.069427 245.451828,507.074432 222.119095,506.967773 
	C216.699097,506.942993 211.280701,506.065979 205.863434,506.086060 
	C199.443741,506.109863 193.023514,506.998016 186.608124,506.945557 
	C174.187363,506.843933 161.723526,506.888702 149.366119,505.834625 
	C140.069153,505.041656 130.814316,503.029510 121.710770,500.849915 
	C104.493782,496.727783 87.966553,490.731842 72.370102,482.120667 
	C51.970974,470.857819 34.858871,456.281616 23.919201,435.407806 
	C19.636719,427.236450 15.268908,418.854431 12.794099,410.047333 
	C8.437347,394.542999 12.485362,376.585754 29.636766,369.181519 
	C37.343731,365.854431 45.574581,366.098816 53.633408,368.076172 
	C56.290661,368.728149 57.475597,369.153534 58.099709,365.627014 
	C60.943211,349.559998 65.951553,334.063812 74.161896,319.989960 
	C80.406494,309.285736 87.876259,299.250183 95.308060,289.295746 
	C105.523598,275.612701 118.756432,265.072479 133.288986,256.436310 
	C143.200684,250.546127 153.834366,245.796890 164.396057,241.101715 
	C170.926117,238.198776 177.800049,235.824142 184.747131,234.164795 
	C194.002823,231.954025 203.423706,229.813889 212.875183,229.195587 
	C225.702316,228.356430 238.625595,228.986664 250.479355,228.986664 
	C253.206436,217.095016 255.597214,206.669846 258.069153,195.890823 
	C250.306747,190.920410 241.838928,185.660233 233.538818,180.147568 
	C219.266449,170.668320 208.107559,158.223160 199.189880,143.655441 
	C190.917984,130.142624 184.864334,115.714203 181.711578,100.207512 
	C179.478638,89.224899 177.499847,77.838448 181.229324,67.013046 
	C184.715790,56.893032 191.513748,48.739502 202.154816,45.052876 
	C213.348160,41.174904 225.020081,41.936676 236.188446,44.278461 
	C247.218674,46.591278 257.811249,50.991299 268.960327,54.593437 
	C271.347748,48.708714 273.940552,41.622875 277.067352,34.781094 
	C281.270691,25.583759 286.931244,17.173527 296.927216,13.837026 
	C302.143311,12.095974 308.624359,11.140448 313.671783,12.671965 
	C319.742859,14.514071 325.205658,18.982037 330.383240,23.017059 
	C340.864075,31.185038 348.533478,42.086517 355.330688,53.155384 
	C367.072449,72.276085 376.121185,92.858475 383.983704,113.908524 
	C384.880676,116.309914 385.564362,118.810486 386.681793,121.101768 
	C387.242157,122.250771 388.407990,123.588745 389.552979,123.894852 
	C403.994202,127.755562 417.761414,133.074844 430.958405,140.260895 
	C444.634033,147.707565 457.173676,156.473251 468.033539,167.570618 
	C480.660004,180.473206 490.052643,195.545990 496.989594,212.167313 
	C501.846436,223.804535 504.798706,235.855957 503.948883,248.560745 
	C503.703186,252.233917 502.682343,255.855240 502.014160,259.925232 
M465.439850,173.074295 
	C444.112335,150.257065 417.638031,136.433548 387.657776,128.928024 
	C384.595490,128.161392 383.338745,126.778580 382.181427,124.142899 
	C373.239197,103.778061 364.888214,83.103851 354.859680,63.281548 
	C346.891083,47.530933 336.003601,33.477024 321.761505,22.547356 
	C316.394501,18.428619 310.498596,16.014076 303.261230,17.329247 
	C293.515106,19.100307 287.730469,25.507147 283.756226,33.555500 
	C279.220062,42.741840 275.686523,52.423286 271.601044,62.166763 
	C270.923096,61.930859 270.154022,61.711796 269.424896,61.399441 
	C267.895203,60.744125 266.384766,60.043591 264.869476,59.354912 
	C248.821793,52.061440 232.283691,47.096710 214.364090,47.677498 
	C202.022827,48.077484 190.202286,56.533020 186.687332,68.326225 
	C183.454178,79.173996 185.021194,89.991928 187.390701,100.725891 
	C193.818130,129.842255 208.207047,154.199509 231.982498,172.366791 
	C242.363312,180.298950 253.795486,186.855194 264.221436,193.689667 
	C261.182495,206.916687 258.087006,220.389771 254.882324,234.338058 
	C254.108398,234.265625 252.658478,234.095490 251.203644,233.999741 
	C244.921005,233.586243 238.592453,232.527161 232.363235,232.942474 
	C221.466019,233.668961 210.572372,234.942322 199.779678,236.638443 
	C178.369110,240.003220 158.357498,247.586105 139.677994,258.464294 
	C118.359932,270.879028 101.308952,287.809967 87.339111,308.158234 
	C75.661873,325.167114 68.151794,343.741425 63.776440,363.739471 
	C62.999470,367.290710 63.491379,372.600189 61.370564,373.977997 
	C59.054108,375.482910 54.331711,373.589294 50.745625,372.785919 
	C26.092361,367.262726 11.981491,386.900726 17.750475,408.096405 
	C25.658058,437.149445 43.719009,458.689117 68.950294,474.309052 
	C91.170105,488.064697 115.798286,495.589661 141.489548,499.129761 
	C153.238037,500.748596 165.289597,500.261383 177.208191,500.529236 
	C192.798172,500.879608 208.391968,501.152893 223.985336,501.239716 
	C245.276016,501.358215 266.567841,501.270111 287.859161,501.270050 
	C301.422272,501.270020 314.986206,501.359436 328.548279,501.240540 
	C339.818237,501.141754 351.085236,500.736206 362.355103,500.582428 
	C370.633820,500.469452 378.923492,500.768402 387.192383,500.459106 
	C393.110443,500.237793 398.145752,497.373718 401.651581,492.703094 
	C409.971863,481.618622 409.256592,469.583435 400.050751,458.003418 
	C394.986847,451.633575 389.934906,445.253418 384.947174,438.823944 
	C380.540741,433.143860 381.527832,429.705658 386.581390,424.765839 
	C395.346069,416.198517 404.482574,407.720490 411.681335,397.899017 
	C430.372192,372.398468 437.651093,342.978210 438.130157,311.719299 
	C438.186768,308.026031 439.384705,306.772614 442.808136,305.630157 
	C451.426788,302.753845 460.272614,300.030518 468.206940,295.731689 
	C490.584656,283.607391 501.701843,259.925171 497.867401,234.866226 
	C494.183350,210.790192 482.217194,191.070145 465.439850,173.074295 
z"/>
<path fill="#485760" opacity="1.000000" stroke="none" 
	d="
M465.688782,173.325684 
	C482.217194,191.070145 494.183350,210.790192 497.867401,234.866226 
	C501.701843,259.925171 490.584656,283.607391 468.206940,295.731689 
	C460.272614,300.030518 451.426788,302.753845 442.808136,305.630157 
	C439.384705,306.772614 438.186768,308.026031 438.130157,311.719299 
	C437.651093,342.978210 430.372192,372.398468 411.681335,397.899017 
	C404.482574,407.720490 395.346069,416.198517 386.581390,424.765839 
	C381.527832,429.705658 380.540741,433.143860 384.947174,438.823944 
	C389.934906,445.253418 394.986847,451.633575 400.050751,458.003418 
	C409.256592,469.583435 409.971863,481.618622 401.651581,492.703094 
	C398.145752,497.373718 393.110443,500.237793 387.192383,500.459106 
	C378.923492,500.768402 370.633820,500.469452 362.355103,500.582428 
	C351.085236,500.736206 339.818237,501.141754 328.548279,501.240540 
	C314.986206,501.359436 301.422272,501.270020 287.859161,501.270050 
	C266.567841,501.270111 245.276016,501.358215 223.985336,501.239716 
	C208.391968,501.152893 192.798172,500.879608 177.208191,500.529236 
	C165.289597,500.261383 153.238037,500.748596 141.489548,499.129761 
	C115.798286,495.589661 91.170105,488.064697 68.950294,474.309052 
	C43.719009,458.689117 25.658058,437.149445 17.750475,408.096405 
	C11.981491,386.900726 26.092361,367.262726 50.745625,372.785919 
	C54.331711,373.589294 59.054108,375.482910 61.370564,373.977997 
	C63.491379,372.600189 62.999470,367.290710 63.776440,363.739471 
	C68.151794,343.741425 75.661873,325.167114 87.339111,308.158234 
	C101.308952,287.809967 118.359932,270.879028 139.677994,258.464294 
	C158.357498,247.586105 178.369110,240.003220 199.779678,236.638443 
	C210.572372,234.942322 221.466019,233.668961 232.363235,232.942474 
	C238.592453,232.527161 244.921005,233.586243 251.203644,233.999741 
	C252.658478,234.095490 254.108398,234.265625 254.882324,234.338058 
	C258.087006,220.389771 261.182495,206.916687 264.221436,193.689667 
	C253.795486,186.855194 242.363312,180.298950 231.982498,172.366791 
	C208.207047,154.199509 193.818130,129.842255 187.390701,100.725891 
	C185.021194,89.991928 183.454178,79.173996 186.687332,68.326225 
	C190.202286,56.533020 202.022827,48.077484 214.364090,47.677498 
	C232.283691,47.096710 248.821793,52.061440 264.869476,59.354912 
	C266.384766,60.043591 267.895203,60.744125 269.424896,61.399441 
	C270.154022,61.711796 270.923096,61.930859 271.601044,62.166763 
	C275.686523,52.423286 279.220062,42.741840 283.756226,33.555500 
	C287.730469,25.507147 293.515106,19.100307 303.261230,17.329247 
	C310.498596,16.014076 316.394501,18.428619 321.761505,22.547356 
	C336.003601,33.477024 346.891083,47.530933 354.859680,63.281548 
	C364.888214,83.103851 373.239197,103.778061 382.181427,124.142899 
	C383.338745,126.778580 384.595490,128.161392 387.657776,128.928024 
	C417.638031,136.433548 444.112335,150.257065 465.688782,173.325684 
M153.998245,376.996460 
	C153.998245,376.996460 154.032104,377.026276 154.038132,376.327271 
	C154.653214,375.352844 155.145004,374.268402 155.901688,373.420319 
	C170.089722,357.517456 187.728439,351.142639 209.066864,352.045044 
	C229.614548,352.913971 252.068832,373.312744 255.813354,391.700562 
	C257.156158,398.294495 257.667297,405.057770 258.511230,411.392609 
	C268.428101,414.386108 278.750427,416.571411 288.256714,420.655914 
	C296.365509,424.139923 305.295715,428.350128 310.691162,434.865417 
	C317.964905,443.648773 322.391968,454.852692 327.614349,465.232330 
	C329.137238,468.259094 330.693939,469.402802 333.990997,469.348877 
	C344.487396,469.177185 354.988403,469.298096 365.487549,469.269928 
	C366.895203,469.266174 368.302338,469.055573 370.868713,468.846161 
	C367.778259,465.652252 365.344330,463.259735 363.048096,460.741669 
	C354.934540,451.844086 349.373535,441.623108 350.514679,429.326904 
	C351.546539,418.208862 357.288727,409.230530 365.499329,401.489532 
	C372.975311,394.441193 380.169800,386.938873 386.493439,378.858063 
	C397.577576,364.694061 403.340851,348.052917 406.098389,330.427063 
	C408.194611,317.028229 407.759033,303.736633 403.620026,290.597870 
	C402.326324,286.491150 399.955139,285.384857 396.305511,284.666107 
	C379.762726,281.408264 365.091095,274.574280 353.874695,261.535278 
	C351.769897,259.088440 350.019684,256.336548 347.370972,252.722855 
	C349.296783,253.320023 349.868042,253.333954 350.198486,253.623108 
	C364.811615,266.411682 381.366180,274.619049 401.005493,276.487793 
	C416.710052,277.982147 432.171326,278.180847 447.102783,272.274200 
	C461.550598,266.558868 470.989868,253.354996 467.537872,236.915375 
	C462.758057,214.152130 449.388214,197.310684 432.119080,183.191620 
	C412.198547,166.904800 388.519806,158.916214 363.454834,154.901474 
	C359.242798,154.226807 357.406372,152.797012 356.503113,148.866440 
	C349.465515,118.243111 336.380341,90.218071 319.455414,63.911751 
	C316.951782,60.020332 313.575928,56.690071 309.813538,52.145973 
	C307.874695,56.528809 306.534058,59.332497 305.378113,62.210361 
	C299.171265,77.662453 298.161041,92.602867 306.712494,108.026886 
	C315.821808,124.457024 323.465820,141.700150 331.718262,158.603607 
	C332.395416,159.990631 332.832336,161.494949 333.439056,163.098526 
	C328.528381,164.343338 324.844421,164.060623 322.475342,159.719940 
	C321.280975,157.531586 319.938446,155.424545 318.683899,153.268478 
	C306.887787,132.995850 292.405579,114.964333 274.256287,99.989616 
	C260.916321,88.983002 245.834412,81.661957 228.690628,79.040016 
	C224.552002,78.407051 220.234146,78.945938 216.020493,78.945938 
	C215.875839,80.500877 215.737228,81.324791 215.731476,82.149628 
	C215.571426,105.107155 225.396988,123.829544 240.784378,139.971268 
	C251.208282,150.906174 263.732300,159.280716 277.362885,165.502457 
	C288.623138,170.642242 300.569977,174.313828 312.316467,178.332443 
	C316.349884,179.712341 320.697479,180.173889 324.901550,181.054977 
	C324.922943,181.585480 324.944336,182.115982 324.965729,182.646469 
	C322.370819,183.330856 319.805603,184.437866 317.175598,184.622406 
	C308.385864,185.239212 302.318481,189.972000 297.964050,197.097885 
	C285.558258,217.399521 283.650574,245.121857 298.237152,265.704102 
	C300.520782,268.926361 302.813568,272.142090 305.337524,275.691956 
	C304.234497,275.588440 303.701630,275.649139 303.255280,275.480621 
	C282.731995,267.733490 261.325714,264.344543 239.565598,263.920288 
	C228.719818,263.708832 217.751831,265.117950 206.977783,266.724152 
	C170.776794,272.121094 140.668991,288.670685 118.115295,317.731293 
	C94.572556,348.066345 85.840706,382.096680 95.822975,419.718628 
	C104.442390,452.204163 125.726692,468.841736 157.881470,469.168762 
	C203.206696,469.629700 248.540115,469.290009 293.870026,469.270721 
	C295.925812,469.269836 297.981567,469.053680 300.965393,468.885498 
	C299.710449,465.974030 299.083557,463.739532 297.887543,461.868866 
	C288.603729,447.348328 275.341309,439.820343 258.040833,439.730530 
	C243.209030,439.653503 228.376495,439.722260 213.544312,439.701355 
	C212.212296,439.699493 210.880554,439.512482 208.211960,439.310059 
	C210.788055,437.598633 212.109070,436.624390 213.517731,435.799896 
	C230.143127,426.068970 235.633820,402.645844 224.976837,386.653076 
	C216.787750,374.363800 204.859558,368.497528 190.498688,367.822876 
	C178.705017,367.268768 167.416245,369.766235 157.233963,376.210358 
	C156.343094,376.774231 155.065399,376.726898 153.998245,376.996460 
M57.022911,421.533966 
	C68.932487,438.238739 84.527328,449.850067 105.096542,457.135040 
	C104.301384,454.725098 104.141960,453.757996 103.692024,452.953400 
	C99.399986,445.278229 95.128036,437.590393 90.713989,429.985321 
	C85.319908,420.691650 78.123070,413.215027 67.923897,409.290466 
	C61.736015,406.909393 55.315861,405.131927 49.000053,403.083282 
	C48.509792,403.655609 48.019531,404.227966 47.529270,404.800293 
	C50.550312,410.183929 53.571354,415.567596 57.022911,421.533966 
z"/>
<path fill="#0BAAFB" opacity="1.000000" stroke="none" 
	d="
M153.967377,376.963440 
	C155.065399,376.726898 156.343094,376.774231 157.233963,376.210358 
	C167.416245,369.766235 178.705017,367.268768 190.498688,367.822876 
	C204.859558,368.497528 216.787750,374.363800 224.976837,386.653076 
	C235.633820,402.645844 230.143127,426.068970 213.517731,435.799896 
	C212.109070,436.624390 210.788055,437.598633 208.211960,439.310059 
	C210.880554,439.512482 212.212296,439.699493 213.544312,439.701355 
	C228.376495,439.722260 243.209030,439.653503 258.040833,439.730530 
	C275.341309,439.820343 288.603729,447.348328 297.887543,461.868866 
	C299.083557,463.739532 299.710449,465.974030 300.965393,468.885498 
	C297.981567,469.053680 295.925812,469.269836 293.870026,469.270721 
	C248.540115,469.290009 203.206696,469.629700 157.881470,469.168762 
	C125.726692,468.841736 104.442390,452.204163 95.822975,419.718628 
	C85.840706,382.096680 94.572556,348.066345 118.115295,317.731293 
	C140.668991,288.670685 170.776794,272.121094 206.977783,266.724152 
	C217.751831,265.117950 228.719818,263.708832 239.565598,263.920288 
	C261.325714,264.344543 282.731995,267.733490 303.255280,275.480621 
	C303.701630,275.649139 304.234497,275.588440 305.337524,275.691956 
	C302.813568,272.142090 300.520782,268.926361 298.237152,265.704102 
	C283.650574,245.121857 285.558258,217.399521 297.964050,197.097885 
	C302.318481,189.972000 308.385864,185.239212 317.175598,184.622406 
	C319.805603,184.437866 322.370819,183.330856 324.965729,182.646469 
	C324.944336,182.115982 324.922943,181.585480 324.901550,181.054977 
	C320.697479,180.173889 316.349884,179.712341 312.316467,178.332443 
	C300.569977,174.313828 288.623138,170.642242 277.362885,165.502457 
	C263.732300,159.280716 251.208282,150.906174 240.784378,139.971268 
	C225.396988,123.829544 215.571426,105.107155 215.731476,82.149628 
	C215.737228,81.324791 215.875839,80.500877 216.020493,78.945938 
	C220.234146,78.945938 224.552002,78.407051 228.690628,79.040016 
	C245.834412,81.661957 260.916321,88.983002 274.256287,99.989616 
	C292.405579,114.964333 306.887787,132.995850 318.683899,153.268478 
	C319.938446,155.424545 321.280975,157.531586 322.475342,159.719940 
	C324.844421,164.060623 328.528381,164.343338 333.439056,163.098526 
	C332.832336,161.494949 332.395416,159.990631 331.718262,158.603607 
	C323.465820,141.700150 315.821808,124.457024 306.712494,108.026886 
	C298.161041,92.602867 299.171265,77.662453 305.378113,62.210361 
	C306.534058,59.332497 307.874695,56.528809 309.813538,52.145973 
	C313.575928,56.690071 316.951782,60.020332 319.455414,63.911751 
	C336.380341,90.218071 349.465515,118.243111 356.503113,148.866440 
	C357.406372,152.797012 359.242798,154.226807 363.454834,154.901474 
	C388.519806,158.916214 412.198547,166.904800 432.119080,183.191620 
	C449.388214,197.310684 462.758057,214.152130 467.537872,236.915375 
	C470.989868,253.354996 461.550598,266.558868 447.102783,272.274200 
	C432.171326,278.180847 416.710052,277.982147 401.005493,276.487793 
	C381.366180,274.619049 364.811615,266.411682 350.198486,253.623108 
	C349.868042,253.333954 349.296783,253.320023 347.370972,252.722855 
	C350.019684,256.336548 351.769897,259.088440 353.874695,261.535278 
	C365.091095,274.574280 379.762726,281.408264 396.305511,284.666107 
	C399.955139,285.384857 402.326324,286.491150 403.620026,290.597870 
	C407.759033,303.736633 408.194611,317.028229 406.098389,330.427063 
	C403.340851,348.052917 397.577576,364.694061 386.493439,378.858063 
	C380.169800,386.938873 372.975311,394.441193 365.499329,401.489532 
	C357.288727,409.230530 351.546539,418.208862 350.514679,429.326904 
	C349.373535,441.623108 354.934540,451.844086 363.048096,460.741669 
	C365.344330,463.259735 367.778259,465.652252 370.868713,468.846161 
	C368.302338,469.055573 366.895203,469.266174 365.487549,469.269928 
	C354.988403,469.298096 344.487396,469.177185 333.990997,469.348877 
	C330.693939,469.402802 329.137238,468.259094 327.614349,465.232330 
	C322.391968,454.852692 317.964905,443.648773 310.691162,434.865417 
	C305.295715,428.350128 296.365509,424.139923 288.256714,420.655914 
	C278.750427,416.571411 268.428101,414.386108 258.511230,411.392609 
	C257.667297,405.057770 257.156158,398.294495 255.813354,391.700562 
	C252.068832,373.312744 229.614548,352.913971 209.066864,352.045044 
	C187.728439,351.142639 170.089722,357.517456 155.901688,373.420319 
	C155.145004,374.268402 154.653214,375.352844 153.831909,376.704590 
	C153.639771,377.269745 153.653885,377.457581 153.667999,377.645386 
	C153.767792,377.418060 153.867584,377.190765 153.967377,376.963440 
M408.236725,202.204620 
	C400.258759,196.186905 390.908508,196.936386 381.692719,196.187225 
	C383.146332,220.070969 392.405640,228.491974 416.702148,224.924988 
	C415.006683,217.153107 415.864685,208.560638 408.236725,202.204620 
z"/>
<path fill="#0DA7F7" opacity="1.000000" stroke="none" 
	d="
M56.807655,421.242615 
	C53.571354,415.567596 50.550312,410.183929 47.529270,404.800293 
	C48.019531,404.227966 48.509792,403.655609 49.000053,403.083282 
	C55.315861,405.131927 61.736015,406.909393 67.923897,409.290466 
	C78.123070,413.215027 85.319908,420.691650 90.713989,429.985321 
	C95.128036,437.590393 99.399986,445.278229 103.692024,452.953400 
	C104.141960,453.757996 104.301384,454.725098 105.096542,457.135040 
	C84.527328,449.850067 68.932487,438.238739 56.807655,421.242615 
z"/>
<path fill="#3F535E" opacity="1.000000" stroke="none" 
	d="
M408.494415,202.457367 
	C415.864685,208.560638 415.006683,217.153107 416.702148,224.924988 
	C392.405640,228.491974 383.146332,220.070969 381.692719,196.187225 
	C390.908508,196.936386 400.258759,196.186905 408.494415,202.457367 
z"/>
<path fill="#485760" opacity="1.000000" stroke="none" 
	d="
M153.982819,376.979950 
	C153.867584,377.190765 153.767792,377.418060 153.667999,377.645386 
	C153.653885,377.457581 153.639771,377.269745 153.828888,377.054108 
	C154.032104,377.026276 153.998245,376.996460 153.982819,376.979950 
z"/>
</svg>