<?xml version="1.0" encoding="utf-8"?>
<!DOCTYPE svg PUBLIC "-//W3C//DTD SVG 1.0//EN" "http://www.w3.org/TR/2001/REC-SVG-20010904/DTD/svg10.dtd">
<svg version="1.0" xmlns="http://www.w3.org/2000/svg" width="512px" height="512px" viewBox="0 0 512 512" preserveAspectRatio="xMidYMid meet">
 <g fill="#fefeff">
  <path d="M148.4 503 c-6.1 -0.4 -11.5 -0.9 -12 -1.2 -0.5 -0.3 -2.5 -0.9 -4.4 -1.2 -7.8 -1.2 -28 -6.7 -36 -9.8 -12.7 -4.8 -29.7 -13.7 -39 -20.4 -16.3 -11.7 -31.1 -30.1 -39 -48.5 -4.5 -10.4 -6 -16.3 -6 -24.5 0 -6.2 0.5 -8.1 3.5 -14.1 3.9 -7.9 5 -9.1 12 -12.7 6.7 -3.4 15.1 -4.2 23.5 -2.3 3.6 0.9 6.6 1.5 6.7 1.4 0.1 -0.1 0.4 -2 0.7 -4.3 2 -13.3 10.2 -35.8 17.9 -49.2 11.7 -20.5 30.2 -41.3 47.6 -53.6 10.9 -7.7 28.6 -16.9 42.1 -21.9 23.3 -8.7 54.4 -13.6 76.1 -12.1 l9.6 0.6 0.7 -5.8 c0.7 -6.4 3.6 -18.6 5.8 -24.9 l1.5 -3.9 -13.3 -8.2 c-27.6 -17 -42.1 -32.5 -53.8 -57.6 -8.4 -17.9 -11.7 -31.5 -11.9 -48.3 -0.1 -10.3 0 -11.4 3 -17.6 3.7 -8 8.3 -12.8 16 -16.5 5.5 -2.8 6.4 -2.9 19.3 -2.9 11.8 0.1 14.7 0.4 23 2.9 5.2 1.5 13.2 4.3 17.8 6.3 4.6 1.9 8.7 3.2 9.1 2.7 0.4 -0.5 1.5 -3.4 2.6 -6.4 3 -9.2 10.5 -23.3 14.3 -27.3 9.3 -9.7 21.6 -11.9 32.8 -5.9 8.2 4.5 22 18.9 31.2 32.7 9.4 14.2 20.1 35.5 28.7 57.5 l6.9 17.5 7.6 2.2 c25.2 7.1 50.8 21.2 69 38 16.2 15 31.7 40.6 36.9 60.9 2.6 10.3 2.7 28.5 0.1 36.6 -4.7 14.3 -14 26.6 -26.8 34.9 -7.3 4.8 -20.8 10.6 -27 11.6 -1.8 0.3 -3.4 0.8 -3.6 1.2 -0.2 0.3 -0.9 6.9 -1.6 14.6 -3.3 39.3 -16.2 67.7 -42.6 94.3 -6.8 6.9 -12.4 13.1 -12.4 13.9 0 0.8 4 6.4 8.9 12.6 4.9 6.1 10.4 13.6 12.2 16.6 3.2 5.2 3.4 6.1 3.4 14.6 0 8.6 -0.2 9.4 -3.5 14.8 -3.3 5.5 -6.9 8.6 -13.5 11.7 -2.5 1.1 -21.6 1.4 -118 1.5 -63.2 0.1 -120 -0.2 -126.1 -0.5z m242.3 -8.7 c5.3 -2.9 9.8 -8.3 11.3 -13.8 2 -7.2 -0.3 -13.6 -8.7 -23.9 -2.6 -3.3 -7.2 -9.1 -10 -13 -4.9 -6.5 -5.3 -7.5 -5.3 -12.6 l0 -5.5 9.5 -8.8 c29.2 -27.2 43.9 -59.6 46.1 -102 0.6 -11.7 0.6 -11.7 3.2 -12.3 12.8 -2.8 27.1 -9.4 36.2 -16.7 11.3 -9.1 20 -24.8 21.6 -39.3 0.7 -6.5 -2.6 -21.4 -7.3 -32.4 -7 -16.3 -15.4 -28.4 -29.7 -42.5 -17.1 -17 -37 -28.7 -63.4 -37.4 -13 -4.3 -14.7 -5.2 -15.9 -7.7 -0.7 -1.6 -3.8 -9.4 -6.9 -17.4 -16.5 -42.6 -38.2 -75.6 -57.1 -86.7 -7.7 -4.5 -16.4 -2.5 -23.3 5.3 -3.8 4.4 -9.7 16.4 -13.8 27.9 -2.7 7.9 -2.8 8 -6.4 8.3 -2.5 0.2 -6.1 -0.7 -10.9 -2.9 -31.9 -13.9 -53.4 -14.4 -64.9 -1.3 -7.2 8.3 -9.3 18.3 -6.6 32.3 7.8 40.6 29.6 69.5 69.4 92.1 l9.2 5.3 0 4.2 c0 2.3 -0.9 6.3 -2 8.8 -2.4 5.4 -6 21.5 -6 27.2 0 2.2 -0.4 4.5 -0.8 5.2 -0.5 0.9 -6.4 1.2 -21.3 1.1 -14.8 0 -22.6 0.4 -28 1.5 -4.1 0.9 -10.3 2.1 -13.9 2.8 -17.8 3.3 -45.1 14.8 -62.5 26.4 -19.8 13.2 -42.4 39 -53.3 61 -5.7 11.4 -11.4 27.8 -13.2 38 -0.6 3.9 -1.4 8 -1.6 9.3 -0.4 1.9 -1 2.2 -5.4 2.2 -2.7 0 -6.1 -0.5 -7.7 -1.1 -1.5 -0.6 -5.6 -1.1 -8.9 -1.1 -9.7 -0.2 -17.2 5 -21.5 14.6 -2.9 6.6 -2.2 14.3 2.5 25.4 9.3 22.2 19.5 34.7 43.9 53.3 4.8 3.7 26.3 13.9 36.5 17.4 9.9 3.3 25.1 7.2 39.2 9.9 6.3 1.2 26.4 1.4 125.5 1.3 l118 -0.2 4.2 -2.2z"/>
 </g>
 <g fill="#0baafc">
  <path d="M147.9 471.5 c-0.4 -0.3 -4.4 -1.3 -9 -2.1 -10.3 -1.8 -19.4 -6.2 -27.1 -13.3 l-5.8 -5.3 0 3.6 c0 3.5 -0.1 3.6 -3.9 3.6 -7.8 0 -25.7 -9.8 -36.4 -19.9 -11.4 -10.8 -21.7 -27.3 -21.7 -34.8 0 -3.2 0.1 -3.3 4.4 -3.3 5.1 0 18.7 4 25.8 7.6 6.2 3.1 11.2 7.6 15.5 13.8 2.9 4.4 3.3 4.7 2.7 2.1 -0.4 -1.6 -1 -3.4 -1.4 -4 -0.5 -0.5 -1.1 -4.8 -1.5 -9.5 -0.4 -4.7 -1.2 -9 -1.7 -9.6 -1.1 -1.5 0.8 -26.3 2.8 -36.9 4.6 -22.8 16.1 -43.5 34.8 -62.1 12.2 -12.2 18.7 -16.9 33.3 -24.4 25.3 -13 58.6 -18.8 93 -16.2 14 1.1 35.5 4.6 40.6 6.7 1.5 0.6 1.2 -0.4 -1.4 -5.1 -3.2 -6 -5.8 -14.6 -5.9 -19.7 0 -1.5 -0.5 -3.5 -1.1 -4.5 -1.7 -2.7 1.4 -25.4 4.6 -33.7 2.5 -6.8 8 -15.8 11.4 -18.9 1.1 -1 3.9 -2.4 6.3 -3.1 2.4 -0.7 3.6 -1.5 2.8 -1.7 -50.7 -14.5 -82.7 -39.7 -93.5 -73.8 -2.1 -6.4 -2.8 -11.3 -3.2 -20.2 l-0.6 -11.8 9.4 0 c34 0 66.6 22.9 94.5 66.2 3.8 5.8 7.4 11.4 8.1 12.5 2.8 4.2 -2.6 -7.6 -13.3 -28.8 -6.2 -12.5 -11.8 -24.9 -12.5 -27.6 -0.6 -2.6 -1.6 -5.8 -2.1 -7 -1.6 -3.2 1.5 -20.6 5.6 -31.4 l3.1 -8.4 4.6 -0.3 c4.4 -0.3 4.9 -0.1 8.2 4 13.8 16.9 34.5 61.2 39.9 85.3 1.1 5 2.6 9.5 3.4 10.1 0.8 0.6 3.8 1.4 6.7 1.8 8.1 1 26.3 6.1 36.1 10.1 31.7 12.8 56.3 37.6 64.8 65.5 2.4 8.2 2.8 21.3 0.6 28 -3 9.6 -11.1 16.4 -24.6 20.7 -6.5 2.1 -10.7 2.6 -26.1 3.3 -10.2 0.5 -19.4 0.5 -20.5 0 -1.2 -0.4 -4.3 -1 -7.1 -1.3 l-5 -0.7 3.6 1.4 c2 0.8 6.1 1.9 9.2 2.6 l5.6 1.1 2.7 8.2 c2.5 7.4 2.7 9.5 2.6 20.7 -0.2 16.3 -1.6 26.3 -5.3 38.5 -6.1 19.9 -12.5 30 -31.2 49.2 -15.6 16 -19.8 22.9 -19.9 32.3 0 7.5 5.3 17.9 13.6 26.7 5.2 5.6 6.6 7.7 6.6 10.2 l0 3.1 -23.8 0 -23.9 0 -1.5 -3.9 c-0.9 -2.2 -5 -10.1 -9.2 -17.5 -7 -12.4 -8.2 -13.9 -13.9 -18 -11 -7.8 -25.4 -13.8 -35.9 -15 -3.1 -0.3 -6.8 -1 -8.2 -1.6 -2.5 -0.9 -2.6 -1.3 -2.6 -8.4 0 -4.1 -0.4 -7.8 -1 -8.1 -0.5 -0.3 -1 -2 -1 -3.7 0 -9.9 -16.2 -29.4 -30 -36.1 -7.3 -3.6 -7.9 -3.7 -19 -3.7 -7.7 -0.1 -13.1 0.4 -16.4 1.5 -4.9 1.5 -18.1 8.4 -17.4 9 0.2 0.2 2.1 0 4.3 -0.5 10.6 -2.5 29.8 -0.4 38.7 4.1 6.2 3.2 13.5 10.5 16.5 16.8 2.6 5.2 2.8 6.4 2.8 18.6 0 11.9 -0.2 13.5 -2.6 18.6 -1.5 3.1 -4.3 7.2 -6.3 9.2 l-3.7 3.7 22.9 0 c25.3 0 30.8 0.7 39.7 4.9 10.8 5.1 21.5 18.4 21.5 26.8 l0 3.3 -72.2 0 c-39.8 0 -74.5 0.3 -77.3 0.6 -2.7 0.3 -5.3 0.3 -5.6 -0.1z m264.1 -251.4 c0 -1.1 -0.4 -2.3 -1 -2.6 -0.5 -0.3 -1 -1.9 -1 -3.5 0 -1.6 -1.1 -4.2 -2.6 -5.9 -4.5 -5.4 -8.2 -7.3 -15.3 -8.1 -3.6 -0.4 -6.7 -0.6 -6.9 -0.5 -0.2 0.2 0.2 2.4 0.9 5.1 2.6 11.2 10.1 17 22.2 17.3 3 0.1 3.7 -0.2 3.7 -1.8z"/>
 </g>
 <g fill="#47545c">
  <path d="M140 498.4 c-13.9 -2.7 -29.3 -6.6 -39.2 -9.9 -10.2 -3.5 -31.7 -13.7 -36.5 -17.4 -19.6 -15 -27.4 -23.1 -35.8 -37.3 -9.7 -16.2 -14.3 -31.3 -12.5 -40.8 3.4 -17.7 18.1 -25.5 38 -20.2 3.3 0.9 6.2 1.3 6.6 1 0.3 -0.4 0.8 -2.4 1.1 -4.5 1.6 -12.7 7.7 -31.3 14.9 -45.8 10.7 -21.1 33.6 -47.1 52.9 -60 20.3 -13.5 51.5 -25.9 70.9 -28.1 2.2 -0.3 5.9 -1 8.1 -1.6 2.2 -0.6 13.4 -1 25 -1.1 14.1 0 21.2 -0.4 21.7 -1.1 0.4 -0.6 0.8 -2.9 0.8 -5.1 0 -5.7 3.6 -21.8 6 -27.2 1.1 -2.5 2 -5.1 2 -5.8 0 -0.7 -4.2 -3.6 -9.2 -6.5 -35.2 -20 -55.5 -43.9 -65.8 -77.5 -9.3 -30.6 -5.5 -50.5 11.4 -59.3 4.4 -2.3 6.6 -2.7 16.4 -3 9.2 -0.3 12.8 0 19.7 1.8 10.6 2.6 17 4.8 26.3 8.9 4 1.8 7.6 3 8.1 2.7 0.4 -0.3 1.8 -3.6 3.1 -7.3 3.4 -10.4 10.3 -24.4 14 -28.6 4.9 -5.6 10.3 -8 18 -8.1 5.3 -0.1 7.3 0.4 11.1 2.6 19.1 11.3 40.8 44 57.3 86.8 3.1 8 6.2 15.8 6.9 17.4 1.2 2.5 2.9 3.4 15.9 7.7 26.4 8.7 46.3 20.4 63.4 37.4 19.1 18.9 30.4 38.3 35.4 60.5 7.5 33.3 -11 62.5 -47 73.8 -3.6 1.1 -7.7 2.3 -9.2 2.6 -2.6 0.6 -2.8 1 -2.9 5.9 -0.2 19.4 -3.5 38 -9.9 55.5 -6.8 18.4 -20.1 37.7 -36.5 52.9 -7.2 6.6 -9.5 9.4 -9.5 11.3 0 2.5 5.2 10.1 15.3 22.6 6.6 8.1 8.8 12.7 9.4 19.6 1.1 11.2 -3.7 20 -13.1 24.4 l-5.1 2.4 -120 -0.1 c-99.7 -0.1 -121.3 -0.3 -127.5 -1.5z m158.5 -34 c-3.1 -7.5 -11 -16.1 -18.4 -19.8 -9.3 -4.8 -10.3 -5 -42.1 -5.5 l-30.5 -0.6 6.2 -4.3 c11 -7.8 14.7 -15.2 14.8 -29.7 0 -8.9 -0.3 -10.6 -2.8 -15.6 -8.6 -17.7 -30 -25.5 -53.7 -19.8 -4.7 1.1 -10.9 3.3 -13.8 5 -3 1.7 -5.7 2.8 -6 2.4 -1.2 -1.1 13.4 -14.2 20 -17.9 7.7 -4.3 18.5 -7.6 24.3 -7.6 2.2 0.1 4.7 0 5.5 0 7 -0.6 15.9 1.2 22.9 4.6 13.8 6.7 29.2 25.1 30.4 36.3 0.2 1.7 0.7 3.4 1 3.8 0.4 0.3 0.7 3.9 0.7 7.9 0 4 0.4 7.5 0.8 7.8 1 0.6 5.3 1.4 11.1 2.2 9.3 1.1 24.5 7.7 34.8 15 5.7 4.1 6.9 5.6 13.9 18 4.2 7.4 8.3 15.3 9.2 17.5 l1.5 3.9 21 0 20.9 0 -6.7 -7.1 c-4.5 -4.9 -7.9 -9.7 -10.4 -14.8 -3.2 -6.7 -3.6 -8.5 -3.5 -15.2 0.1 -12.2 3.3 -17.9 20.1 -35.2 7.6 -7.8 15.4 -16.7 17.4 -19.7 12.1 -18.3 18.9 -41.2 18.8 -63 0 -10.3 -0.4 -13.5 -2.8 -21.1 l-2.1 -6.7 -7 -1.6 c-14.4 -3.2 -26.1 -9 -35.2 -17.4 -5.2 -4.9 -11.8 -13 -11.8 -14.6 0 -0.3 2.7 1.5 5.9 4.2 12.7 10.1 25.8 16.1 42.6 19.2 7.3 1.4 28.9 1.3 36.7 -0.1 28.2 -5 39.7 -20.7 32.8 -44.9 -7.8 -27.3 -32.8 -52.7 -64.6 -65.5 -9.5 -3.9 -27.7 -9 -35.9 -10.1 -2.7 -0.3 -5.7 -1 -6.6 -1.5 -0.9 -0.5 -2.3 -4 -3.4 -9.1 -2.3 -10.4 -1.8 -8.8 -5.5 -18.8 -7.8 -21 -15.4 -37.1 -25.5 -54 -7.7 -12.7 -12.5 -18.6 -14.7 -17.8 -3.1 1.2 -12.2 32.8 -9.8 34.3 0.4 0.3 1.1 2.5 1.4 4.9 0.4 2.6 7 17.3 16.6 36.7 8.7 17.8 15.6 32.7 15.4 33.1 -0.3 0.5 -2.1 0.8 -4 0.8 -3.8 0 -3.4 0.5 -15.6 -18.5 -12.9 -20.1 -28 -37 -43.3 -48.5 -14.2 -10.6 -34.1 -18 -48.4 -18 l-6.4 0 0.6 8.8 c2 30.7 21.3 56.2 57.5 76 12.8 7 38.8 16 48.1 16.5 1.3 0.1 2.6 0.7 2.8 1.4 0.4 1.2 -1.4 1.8 -12.4 4.3 -2.9 0.7 -6.4 2 -7.7 3.1 -3.6 2.8 -9.4 12 -12.1 19.4 -2.7 7.2 -5.7 26.4 -4.3 27.9 0.4 0.6 0.8 2.4 0.8 4 0.1 9.7 6.5 23.8 14.8 32.8 3 3.2 3.2 3.2 -10.3 -0.7 -44.9 -13.3 -94.7 -10.1 -130.8 8.5 -14.6 7.5 -21.1 12.2 -33.3 24.4 -18.7 18.6 -30.2 39.2 -34.8 62.1 -1.7 8.9 -3.5 30.4 -2.5 31 0.3 0.3 0.9 3.7 1.3 7.7 0.8 8.1 1.1 9.6 1.9 11.8 0.3 0.8 1.3 4 2.2 7 6.3 20.3 25.3 39.3 41.5 41.6 2.3 0.3 6.3 1.1 8.9 1.8 3.3 0.8 25.6 1 78.9 0.8 l74.2 -0.2 -1.5 -3.6z m-195.5 -10.4 c0 -1 -11 -20.8 -16.2 -29.2 -3.7 -5.9 -9.3 -11 -15.5 -14.2 -5.6 -2.8 -21.7 -8 -23.2 -7.5 -1.5 0.5 4 11.9 9.3 19.4 8.6 12 22.5 23 37.9 30 5.7 2.6 7.7 3 7.7 1.5z"/>
  <path d="M398.4 224.1 c-6.8 -1.7 -13.6 -8.1 -14.9 -13.9 -0.3 -1.2 -0.8 -3.2 -1.1 -4.4 -0.7 -2.9 -1.3 -5.7 -1.6 -8.3 -0.3 -1.7 0.2 -2 3.2 -1.9 8.5 0.3 15 1.3 18.3 2.9 4.2 2 10.6 8.7 10.9 11.3 0.2 3.1 0.3 3.7 1 4.7 0.3 0.6 0.8 3 0.9 5.5 l0.4 4.5 -7 0.2 c-3.8 0.1 -8.4 -0.2 -10.1 -0.6z"/>
 </g>
</svg>